<svg width="295" height="259" viewBox="0 0 295 259" fill="none" xmlns="http://www.w3.org/2000/svg">
<g clip-path="url(#clip0)">
<path d="M89.3165 94.1775L145.416 61.7889C146.819 60.9781 148.55 60.9781 149.954 61.7889L206.054 94.1775C207.457 94.9883 208.323 96.486 208.323 98.1076V162.885C208.323 164.505 207.457 166.004 206.054 166.816L149.954 199.205C148.55 200.016 146.819 200.016 145.416 199.205L89.3165 166.816C87.9126 166.005 87.0474 164.506 87.0474 162.885V98.1076C87.0485 96.486 87.9138 94.9883 89.3165 94.1775Z" fill="url(#paint0_linear)"/>
<path d="M293.543 123.682L226.516 7.0728C224.081 2.85656 219.583 -0.253494 214.715 -0.253494H80.657C75.7875 -0.253494 71.2886 2.85656 68.8538 7.0728L1.82607 123.425C-0.608691 127.642 -0.608691 132.965 1.82607 137.182L68.8538 252.836C71.2886 257.052 75.7875 259.207 80.657 259.207H214.714C219.582 259.207 224.081 257.117 226.515 252.899L293.542 137.057C295.979 132.842 295.979 127.898 293.543 123.682ZM238.041 179.756C238.041 181.47 237.009 183.056 235.523 183.914L150.144 233.173C148.659 234.03 146.799 234.03 145.314 233.173L59.8689 183.914C58.3839 183.056 57.3449 181.471 57.3449 179.756V81.2357C57.3449 79.5203 58.3688 77.9357 59.8549 77.0774L145.23 27.8181C146.715 26.9598 148.573 26.9598 150.058 27.8181L235.509 77.0774C236.995 77.9357 238.041 79.5203 238.041 81.2357V179.756Z" fill="#4B32C3"/>
<path opacity="0.6" fill-rule="evenodd" clip-rule="evenodd" d="M148.54 170.558C173.174 169.679 190.301 148.329 188.821 129.229C188.478 125.262 184.959 122.187 180.984 122.378C177.009 122.569 173.941 125.945 174.132 129.92C174.689 141.528 164.256 155.71 147.79 156.166C147.589 156.171 147.392 156.185 147.196 156.206C147.303 156.205 147.41 156.203 147.517 156.201C151.495 156.103 154.8 159.248 154.898 163.226C154.99 166.978 152.196 170.131 148.54 170.558Z" fill="url(#paint1_linear)"/>
<path d="M162.983 129.733C162.983 125.659 166.316 122.357 170.426 122.357H181.274C185.385 122.357 188.821 125.659 188.821 129.733C188.821 133.806 185.385 137.109 181.274 137.109H170.426C166.316 137.109 162.983 133.806 162.983 129.733Z" fill="white"/>
<path d="M140.223 129.744C140.223 125.664 143.534 122.357 147.614 122.357C151.694 122.357 155.006 125.664 155.006 129.744C155.006 133.823 151.694 137.13 147.614 137.13C143.534 137.13 140.223 133.823 140.223 129.744Z" fill="white"/>
<path fill-rule="evenodd" clip-rule="evenodd" d="M154.801 95.2305C154.966 99.2061 151.877 102.563 147.901 102.728C130.736 103.441 120.258 116.892 120.768 129.664C120.927 133.64 117.896 136.992 113.92 137.15C109.944 137.309 106.447 134.1 106.288 130.124C105.457 109.311 122.838 88.7352 147.303 88.3311C151.279 88.166 154.636 91.255 154.801 95.2305Z" fill="white"/>
<path opacity="0.7" fill-rule="evenodd" clip-rule="evenodd" d="M106.265 129.353C106.363 154.501 127.003 171.119 147.871 170.605C151.85 170.507 154.995 167.203 154.897 163.226C154.8 159.248 151.495 156.103 147.517 156.201C134.436 156.522 121.341 146.252 120.767 130.269C120.614 133.974 117.693 137 113.92 137.15C109.943 137.309 106.447 134.1 106.288 130.124C106.278 129.867 106.27 129.61 106.265 129.353Z" fill="url(#paint2_linear)"/>
</g>
<defs>
<linearGradient id="paint0_linear" x1="-317.677" y1="-114.359" x2="353.989" y2="661.013" gradientUnits="userSpaceOnUse">
<stop stop-color="#27A59B"/>
<stop offset="1" stop-color="#4BCB8F"/>
</linearGradient>
<linearGradient id="paint1_linear" x1="185.504" y1="137.899" x2="69.1283" y2="169.186" gradientUnits="userSpaceOnUse">
<stop stop-color="white" stop-opacity="0.89"/>
<stop offset="1" stop-color="white" stop-opacity="0.51"/>
</linearGradient>
<linearGradient id="paint2_linear" x1="144.901" y1="158.998" x2="83.2071" y2="92.2047" gradientUnits="userSpaceOnUse">
<stop stop-color="white"/>
<stop offset="1" stop-color="white" stop-opacity="0.8"/>
</linearGradient>
<clipPath id="clip0">
<rect width="295" height="259" fill="white"/>
</clipPath>
</defs>
</svg>
