<svg width="276" height="243" viewBox="0 0 276 243" fill="none" xmlns="http://www.w3.org/2000/svg">
<path d="M47.2397 64.5126L134.276 14.2738C136.454 13.0161 139.139 13.0161 141.317 14.2738L228.355 64.5126C230.531 65.7703 231.876 68.0934 231.876 70.6088V171.086C231.876 173.6 230.531 175.925 228.355 177.184L141.317 227.423C139.139 228.681 136.454 228.681 134.276 227.423L47.2397 177.184C45.0616 175.927 43.7192 173.602 43.7192 171.086V70.6088C43.721 68.0934 45.0634 65.7703 47.2397 64.5126Z" fill="white"/>
<path d="M83.2687 88.5677L135.569 58.3722C136.878 57.6163 138.491 57.6163 139.8 58.3722L192.102 88.5677C193.41 89.3236 194.217 90.7199 194.217 92.2318V152.623C194.217 154.134 193.41 155.531 192.102 156.288L139.8 186.483C138.491 187.239 136.878 187.239 135.569 186.483L83.2687 156.288C81.9599 155.532 81.1532 154.135 81.1532 152.623V92.2318C81.1543 90.7199 81.961 89.3236 83.2687 88.5677Z" fill="url(#paint0_linear)"/>
<path d="M273.667 116.074L211.178 7.36098C208.908 3.43023 204.715 0.530762 200.176 0.530762H75.1956C70.6558 0.530762 66.4615 3.43023 64.1916 7.36098L1.70243 115.835C-0.567475 119.766 -0.567475 124.728 1.70243 128.66L64.1916 236.483C66.4615 240.413 70.6558 242.423 75.1956 242.423H200.175C204.714 242.423 208.908 240.474 211.177 236.542L273.666 128.544C275.938 124.614 275.938 120.005 273.667 116.074ZM221.923 168.351C221.923 169.949 220.961 171.428 219.575 172.228L139.977 218.152C138.593 218.951 136.859 218.951 135.474 218.152L55.815 172.228C54.4306 171.428 53.462 169.95 53.462 168.351V76.5022C53.462 74.9029 54.4166 73.4257 55.8021 72.6255L135.397 26.7016C136.781 25.9014 138.513 25.9014 139.897 26.7016L219.562 72.6255C220.948 73.4257 221.923 74.9029 221.923 76.5022V168.351Z" fill="#4B32C3"/>
<path opacity="0.6" fill-rule="evenodd" clip-rule="evenodd" d="M138.54 162.558C163.174 161.679 180.301 140.329 178.821 121.229C178.478 117.262 174.959 114.187 170.984 114.378C167.009 114.569 163.941 117.945 164.132 121.92C164.689 133.527 154.256 147.71 137.79 148.166C137.589 148.171 137.392 148.185 137.196 148.206C137.303 148.205 137.41 148.203 137.517 148.201C141.495 148.103 144.8 151.248 144.898 155.226C144.99 158.978 142.196 162.131 138.54 162.558Z" fill="url(#paint1_linear)"/>
<path d="M152.983 121.733C152.983 117.659 156.316 114.357 160.427 114.357H171.274C175.385 114.357 178.821 117.659 178.821 121.733C178.821 125.806 175.385 129.109 171.274 129.109H160.427C156.316 129.109 152.983 125.806 152.983 121.733Z" fill="white"/>
<path d="M130.223 121.743C130.223 117.664 133.534 114.357 137.614 114.357C141.694 114.357 145.006 117.664 145.006 121.743C145.006 125.823 141.694 129.13 137.614 129.13C133.534 129.13 130.223 125.823 130.223 121.743Z" fill="white"/>
<path fill-rule="evenodd" clip-rule="evenodd" d="M144.801 87.2305C144.966 91.206 141.877 94.5627 137.901 94.7278C120.736 95.4406 110.258 108.892 110.768 121.664C110.927 125.64 107.896 128.992 103.92 129.15C99.9436 129.309 96.4468 126.1 96.288 122.124C95.4569 101.311 112.838 80.7351 137.303 80.331C141.279 80.1659 144.636 83.2549 144.801 87.2305Z" fill="white"/>
<path opacity="0.7" fill-rule="evenodd" clip-rule="evenodd" d="M96.2655 121.353C96.3631 146.501 117.003 163.119 137.871 162.605C141.85 162.507 144.995 159.203 144.897 155.226C144.8 151.248 141.495 148.103 137.517 148.201C124.436 148.522 111.341 138.252 110.767 122.269C110.614 125.974 107.693 129 103.92 129.15C99.9435 129.309 96.4467 126.1 96.288 122.124C96.2777 121.867 96.2702 121.61 96.2655 121.353Z" fill="url(#paint2_linear)"/>
<defs>
<linearGradient id="paint0_linear" x1="-296.166" y1="-105.849" x2="330.02" y2="617.022" gradientUnits="userSpaceOnUse">
<stop stop-color="#27A59B"/>
<stop offset="1" stop-color="#4BCB8F"/>
</linearGradient>
<linearGradient id="paint1_linear" x1="175.504" y1="129.899" x2="59.1283" y2="161.186" gradientUnits="userSpaceOnUse">
<stop stop-color="white" stop-opacity="0.89"/>
<stop offset="1" stop-color="white" stop-opacity="0.51"/>
</linearGradient>
<linearGradient id="paint2_linear" x1="134.901" y1="150.998" x2="73.2072" y2="84.2046" gradientUnits="userSpaceOnUse">
<stop stop-color="white"/>
<stop offset="1" stop-color="white" stop-opacity="0.8"/>
</linearGradient>
</defs>
</svg>
